<?xml version="1.0" encoding="UTF-8"?>
<svg id="Capa_1" xmlns="http://www.w3.org/2000/svg" version="1.1" viewBox="0 0 98.8 98.8">
  <!-- Generator: Adobe Illustrator 29.4.0, SVG Export Plug-In . SVG Version: 2.1.0 Build 152)  -->
  <defs>
    <style>
      .st0 {
        fill: #fff;
      }
    </style>
  </defs>
  <path class="st0" d="M74.7,80.5H24.1c-3.9,0-7.4-2-9.3-5.3-2-3.3-2-7.4-.1-10.8l25.3-44.8c2-3.5,5.5-5.5,9.5-5.5,3.9,0,7.4,2.1,9.3,5.5l25.3,44.8c1.9,3.4,1.9,7.4-.1,10.8-1.9,3.3-5.4,5.3-9.2,5.3h0ZM49.4,20.1c-1.7,0-3.3.9-4.2,2.5l-25.3,44.8c-.8,1.5-.8,3.3,0,4.8.9,1.5,2.4,2.3,4.1,2.3h50.5c1.8,0,3.3-.9,4.1-2.3.9-1.5.9-3.3,0-4.8l-25.3-44.8c-.8-1.5-2.4-2.4-4.1-2.5h0Z"/>
  <path class="st0" d="M49.4,27c-1.7,0-3,1.3-3,3v29.5c0,1.7,1.3,3,3,3h0c1.7,0,3-1.3,3-3v-29.5c0-1.7-1.3-3-3-3h0Z"/>
  <circle class="st0" cx="49.5" cy="67.8" r="3"/>
</svg>