<?xml version="1.0" encoding="UTF-8"?>
<svg id="Capa_1" xmlns="http://www.w3.org/2000/svg" version="1.1" viewBox="0 0 98.8 98.8">
  <!-- Generator: Adobe Illustrator 29.4.0, SVG Export Plug-In . SVG Version: 2.1.0 Build 152)  -->
  <defs>
    <style>
      .st0 {
        fill: #fff;
      }
    </style>
  </defs>
  <g id="uuid-bc99a30d-cf29-47b0-936f-bc1b9863a922">
    <g>
      <path class="st0" d="M37.7,37.5l7.7-1,11.7-12.8v-4.3H21.8c-1.5,0-2.7,1.2-2.7,2.7h0c0,1.5,1.2,2.7,2.7,2.7h27.6s-11.6,12.6-11.6,12.6Z"/>
      <path class="st0" d="M40,80.8c-12.5,0-22.7-10.1-22.7-22.5s1.1-2.5,2.5-2.5,2.5,1.1,2.5,2.5c0,9.7,7.9,17.5,17.7,17.5s17.7-7.9,17.7-17.5-7.9-17.5-17.7-17.5-2.5-1.1-2.5-2.5,1.1-2.5,2.5-2.5c12.5,0,22.7,10.1,22.7,22.5s-10.2,22.5-22.7,22.5Z"/>
    </g>
    <path class="st0" d="M76,25v50.3c0,1.7,1.3,3,3,3h0c1.7,0,3-1.3,3-3V19.5l-6.1,5.5h0Z"/>
    <g>
      <path class="st0" d="M82.1,19.5h-11.2c-1.5,0-2.7,1.2-2.7,2.7s1.2,2.7,2.7,2.7h5.3l5.9-5.4Z"/>
      <path class="st0" d="M79.2,78.3s0,0,0,0c.2,0,.3,0,.4,0-.2,0-.3,0-.5,0Z"/>
    </g>
  </g>
</svg>