<?xml version="1.0" encoding="UTF-8"?>
<svg id="Capa_1" xmlns="http://www.w3.org/2000/svg" version="1.1" viewBox="0 0 98.8 98.8">
  <!-- Generator: Adobe Illustrator 29.4.0, SVG Export Plug-In . SVG Version: 2.1.0 Build 152)  -->
  <defs>
    <style>
      .st0 {
        fill: #fff;
      }
    </style>
  </defs>
  <g id="uuid-9d1c0400-8863-4b6f-94c0-88e8d5d9f2c6">
    <path class="st0" d="M48.2,51.7h-16.6c-7.6,0-13.7-6.2-13.7-13.7v-17.4c0-1.4,1.1-2.5,2.5-2.5h16.6c7.6,0,13.7,6.2,13.7,13.7v17.4c0,1.4-1.1,2.5-2.5,2.5ZM22.8,23.1v14.9c0,4.8,3.9,8.7,8.7,8.7h14.1v-14.9c0-4.8-3.9-8.7-8.7-8.7,0,0-14.1,0-14.1,0Z"/>
    <path class="st0" d="M39.4,80.1h-11.3c-5.7,0-10.3-4.6-10.3-10.3v-12.2c0-1.4,1.1-2.5,2.5-2.5h11.3c5.7,0,10.3,4.6,10.3,10.3v12.2c0,1.4-1.1,2.5-2.5,2.5ZM22.8,60.2v9.7c0,2.9,2.4,5.3,5.3,5.3h8.8v-9.7c0-2.9-2.4-5.3-5.3-5.3h-8.8Z"/>
    <path class="st0" d="M52.7,80.1h-4.5c-1.4,0-2.5-1.1-2.5-2.5v-14.3c0-4.5,3.7-8.2,8.1-8.2h4.5c1.4,0,2.5,1.1,2.5,2.5v14.3c0,4.5-3.7,8.2-8.1,8.2ZM50.7,75.1h2c1.7,0,3.2-1.4,3.2-3.2v-11.8h-2c-1.7,0-3.2,1.4-3.2,3.2v11.8Z"/>
    <path class="st0" d="M69.4,80.1h-4.5c-1.4,0-2.5-1.1-2.5-2.5v-14.3c0-4.5,3.7-8.2,8.2-8.2h4.5c1.4,0,2.5,1.1,2.5,2.5v14.3c0,4.5-3.7,8.2-8.2,8.2ZM67.4,75.1h2c1.7,0,3.2-1.4,3.2-3.2v-11.8h-2c-1.7,0-3.2,1.4-3.2,3.2v11.8Z"/>
    <path class="st0" d="M75.3,32.6h-18.8c-1.4,0-2.5-1.1-2.5-2.5s1.1-2.5,2.5-2.5h18.8c1.4,0,2.5,1.1,2.5,2.5s-1.1,2.5-2.5,2.5Z"/>
    <path class="st0" d="M75.3,42.2h-18.8c-1.4,0-2.5-1.1-2.5-2.5s1.1-2.5,2.5-2.5h18.8c1.4,0,2.5,1.1,2.5,2.5s-1.1,2.5-2.5,2.5Z"/>
    <path class="st0" d="M75.3,23.1h-18.8c-1.4,0-2.5-1.1-2.5-2.5s1.1-2.5,2.5-2.5h18.8c1.4,0,2.5,1.1,2.5,2.5s-1.1,2.5-2.5,2.5Z"/>
    <path class="st0" d="M75.3,51.7h-18.8c-1.4,0-2.5-1.1-2.5-2.5s1.1-2.5,2.5-2.5h18.8c1.4,0,2.5,1.1,2.5,2.5s-1.1,2.5-2.5,2.5Z"/>
  </g>
</svg>