<?xml version="1.0" encoding="UTF-8"?>
<svg id="Capa_1" xmlns="http://www.w3.org/2000/svg" version="1.1" viewBox="0 0 40 40">
  <!-- Generator: Adobe Illustrator 29.4.0, SVG Export Plug-In . SVG Version: 2.1.0 Build 152)  -->
  <defs>
    <style>
      .st0 {
        fill: #6b3f6e;
      }
    </style>
  </defs>
  <path class="st0" d="M16.7,11.2l-.7,1.8c2.6,1.2,4.8-.8,5.3-1.3.7-.2,3.7-1.4,3.9-4.3l-1.9-.3s.4-2.2-.3-3.2l-2.6,1.7s-1.8-1.6-3.8-2.2h0c0,.1,0,0,0,0-.5,2,.1,4.3.1,4.3l-2.7,1.5c.5,1.1,2.7,1.8,2.7,1.8Z"/>
  <path class="st0" d="M24.1,29.7c4.3,0,7.7-3.5,7.7-7.7s-3.3-7.5-7.4-7.7c2.9-1.3,5.9-1.2,6.2-1.2l.2-2.5c-.1,0-9-.5-12.8,6.3.1-1.1-.5-2.1-1.6-2.4-1-.3-2.2-.4-3.3-.2-3.3.5-5.9,3.3-6.4,6.6-.5,3.8,1.8,7.2,5.2,8.3,0,.2,0,.4,0,.6.5,3.4,3.1,6,6.5,6.5,3.4.5,6.5-1.3,7.9-4.1.6-1.2-.3-2.7-1.7-2.6h0c-.5,2.7-3.1,4.7-6,4.2-2.2-.3-3.9-2.1-4.3-4.2-.3-1.5.1-2.9.9-4,.8-1.1,1.2-2.3,1.2-3.6,0,0,0,0,0,0,0-.1,0-.2,0-.4-2.2.9-3.8,2.8-4.4,5.1-2-.9-3.3-3.1-3-5.5.3-2.3,2.1-4.1,4.4-4.4,1.5-.2,2.9.2,4,1.1-.3.8-.7,1.6-.9,2.5h0c-.1.5-.2,1-.2,1.6,0,4.3,3.5,7.7,7.7,7.7ZM29.4,22c0,2.9-2.3,5.2-5.2,5.2s-5.2-2.3-5.2-5.2,0-.7.1-1c0-.2.1-.4.2-.6.7-2.1,2.6-3.6,4.9-3.6s5.2,2.3,5.2,5.2Z"/>
</svg>