<?xml version="1.0" encoding="UTF-8"?>
<svg id="Capa_1" xmlns="http://www.w3.org/2000/svg" version="1.1" viewBox="0 0 98.8 98.8">
  <!-- Generator: Adobe Illustrator 29.4.0, SVG Export Plug-In . SVG Version: 2.1.0 Build 152)  -->
  <defs>
    <style>
      .st0 {
        fill: #fff;
      }
    </style>
  </defs>
  <path class="st0" d="M43.2,27l-1.8,4.7c6.6,3,12.3-2,13.5-3.2,1.8-.6,9.3-3.5,9.8-10.8l-5-.7s1.1-5.7-.8-8l-6.6,4.3s-4.5-4.1-9.5-5.4v.2c.1,0,0-.2,0-.2-1.3,5.1.4,11,.4,11l-6.9,3.9c1.3,2.7,6.7,4.5,6.7,4.5v-.2Z"/>
  <path class="st0" d="M81.5,54.5c0-10.5-8.4-19-18.8-19.5,7.4-3.4,15-3,15.5-3l.5-6.3c-.2,0-22.7-1.3-32.5,16,.2-2.7-1.3-5.3-4.1-6.1-2.6-.7-5.4-.9-8.4-.5-8.4,1.4-15,8.3-16.1,16.7-1.3,9.7,4.6,18.2,13.1,21,0,.5,0,1.1.1,1.5,1.3,8.6,7.9,15.2,16.5,16.4s16.4-3.3,20.1-10.4c1.7-3.1-.8-6.7-4.3-6.6,10.2-.6,18.3-9.1,18.3-19.5v.2ZM31.2,66.4c-5-2.4-8.3-7.8-7.4-13.8.8-5.7,5.4-10.4,11.1-11.2,3.8-.6,7.4.6,10,2.7-.6,1.3-1.2,2.8-1.7,4.4-.2.6-.4,1.2-.5,1.8v.2h0c-.2,1.1-.4,2-.4,3.1-5.4,2.4-9.7,7.1-11.2,12.9ZM47.9,84.5c-5.4-.8-9.8-5.2-10.9-10.6-.7-3.8.4-7.4,2.4-10.2s3-5.9,3-9.2h0c0,10.8,8.7,19.5,19.5,19.5s.7,0,1.1,0c-1.3,6.9-7.8,11.8-15.1,10.6h.1ZM62,67.6c-7.3,0-13.2-5.9-13.2-13.2s0-1.8.2-2.6c.1-.5.2-.9.4-1.5,1.8-5.3,6.7-9.1,12.5-9.1s13.2,5.9,13.2,13.2-5.9,13.2-13.2,13.2h.1Z"/>
</svg>