<?xml version="1.0" encoding="UTF-8"?>
<svg id="Capa_1" xmlns="http://www.w3.org/2000/svg" version="1.1" viewBox="0 0 98.8 98.8">
  <!-- Generator: Adobe Illustrator 29.4.0, SVG Export Plug-In . SVG Version: 2.1.0 Build 152)  -->
  <defs>
    <style>
      .st0 {
        fill: none;
        stroke: #fff;
        stroke-linecap: round;
        stroke-linejoin: round;
        stroke-width: 6px;
      }
    </style>
  </defs>
  <g id="party_cloud1">
    <path class="st0" d="M36.5,60.6c-5.3-.9-9.4-5.6-9.4-11.3s5.1-11.5,11.4-11.5,10.9,4.6,11.4,10.5"/>
    <line class="st0" x1="38.5" y1="29.4" x2="38.5" y2="23"/>
    <line class="st0" x1="52.7" y1="35" x2="56.9" y2="30.7"/>
    <line class="st0" x1="20" y1="67.8" x2="24.2" y2="63.6"/>
    <line class="st0" x1="12.4" y1="49.3" x2="18.6" y2="49.3"/>
    <line class="st0" x1="20" y1="30.7" x2="24.1" y2="35"/>
    <path class="st0" d="M45.8,57.1c0-3.6,1.6-6.7,4.1-8.8,2-1.7,4.6-2.7,7.4-2.7,5.9,0,10.7,4.5,11.4,10.2,1.1-.4,2.3-.7,3.7-.7,4.6,0,8.5,3,9.8,7.2,2.6,1.1,4.2,3.6,4.2,6.5s-3.1,7-7,7h-35c-4.8,0-8.7-3.9-8.7-8.7s3.8-10.1,10.2-10.1h0,0Z"/>
  </g>
</svg>