<?xml version="1.0" encoding="UTF-8"?>
<svg id="Capa_1" xmlns="http://www.w3.org/2000/svg" xmlns:xlink="http://www.w3.org/1999/xlink" version="1.1" viewBox="0 0 40 40">
  <!-- Generator: Adobe Illustrator 29.4.0, SVG Export Plug-In . SVG Version: 2.1.0 Build 152)  -->
  <defs>
    <style>
      .st0 {
        fill: #fff;
      }

      .st1 {
        fill: #6b3f6e;
      }

      .st2 {
        fill: url(#Degradado_sin_nombre_101);
      }

      .st3 {
        fill: url(#Degradado_sin_nombre_10);
      }
    </style>
    <linearGradient id="Degradado_sin_nombre_10" data-name="Degradado sin nombre 10" x1="17.6" y1="30.7" x2="25.7" y2="30.7" gradientUnits="userSpaceOnUse">
      <stop offset="0" stop-color="#118237"/>
      <stop offset="1" stop-color="#17c874"/>
    </linearGradient>
    <linearGradient id="Degradado_sin_nombre_101" data-name="Degradado sin nombre 10" x1="8.1" y1="22.5" x2="18.8" y2="22.5" xlink:href="#Degradado_sin_nombre_10"/>
  </defs>
  <circle class="st0" cx="20" cy="20" r="19.7"/>
  <g>
    <g>
      <path class="st3" d="M24.9,28.4c-.6-.9-1.6-1.4-2.6-1.6s-2.2,0-3,.7c-.9.6-1.4,1.6-1.6,2.6-.2,1.1,0,2.2.7,3s1.6,1.4,2.6,1.6c.2,0,.5,0,.7,0,.8,0,1.7-.2,2.4-.8.9-.6,1.4-1.6,1.6-2.6.2-1.1,0-2.2-.7-3h0Z"/>
      <path class="st2" d="M17.5,33.6c-.8-1.1-1.1-2.4-.9-3.7.2-1.3.9-2.4,2-3.2l-1.2-.4c-3.2-1.2-5.4-4.3-5.4-7.7s1.3-5.1,3.5-6.7c.7-.4,1.4-.7,2.1-.9l1.2-.4s-4.5-.7-8,3.4c-1.7,2.2-2.6,5-2.6,7.8s0,.4,0,.6h0c0,.7.1,2.1.6,3.7h0c0,0,0,.1,0,.1.6,1.8,1.9,3.9,4.4,5.9,0,0,.1,0,.2.1h0c.2.1.3.2.5.3.7.4,1.5.8,2.4,1.2l1.7.6s0,0,0-.2c-.2-.2-.4-.4-.5-.6,0,0,0,0,0,0ZM15.3,31.6c-.3-.2-.6-.4-.6-.4-3.2-2.1-5.1-5.6-5.1-9.5s.8-4.3,1.2-4.9c-.1.6-.1,1.1-.1,1.7,0,3.7,2.2,7.1,5.5,8.7-.4.7-.7,1.4-.8,2.2-.1.7-.1,1.4,0,2.2h0s0,0,0,0h0Z"/>
    </g>
    <g>
      <path class="st1" d="M22.2,10l-.4,1.2c1.7.7,3.1-.5,3.4-.8.4-.2,2.3-.9,2.5-2.7l-1.2-.2s.3-1.4-.2-2l-1.7,1.1s-1.1-1-2.4-1.4h0c0,0,0,0,0,0-.3,1.3,0,2.8,0,2.8l-1.7,1c.3.7,1.7,1.1,1.7,1.1Z"/>
      <path class="st1" d="M26.9,21.9c2.7,0,4.9-2.2,4.9-4.9s-2.1-4.8-4.7-4.9c1.9-.9,3.8-.7,3.9-.7v-1.6s-5.6-.3-8.1,4c0-.7-.3-1.3-1-1.5-.7-.2-1.4-.2-2.1-.1-2.1.3-3.8,2.1-4,4.2-.3,2.4,1.2,4.6,3.3,5.3,0,.1,0,.2,0,.4.3,2.2,2,3.8,4.2,4.1,2.2.3,4.1-.8,5-2.6.4-.8-.2-1.7-1.1-1.6h0c-.3,1.7-1.9,3-3.8,2.7-1.4-.2-2.5-1.3-2.7-2.7-.2-1,0-1.9.6-2.6.5-.7.8-1.5.8-2.3,0,0,0,0,0,0,0,0,0-.2,0-.2-1.4.6-2.4,1.8-2.8,3.2-1.3-.6-2.1-2-1.9-3.5.2-1.4,1.4-2.6,2.8-2.8,1-.1,1.9.1,2.6.7-.2.5-.4,1-.6,1.6h0c0,.3-.1.7-.1,1,0,2.7,2.2,4.9,4.9,4.9ZM30.3,16.9c0,1.8-1.5,3.3-3.3,3.3s-3.3-1.5-3.3-3.3,0-.4,0-.7c0-.1,0-.2.1-.4.4-1.3,1.7-2.3,3.1-2.3s3.3,1.5,3.3,3.3Z"/>
    </g>
  </g>
</svg>