<?xml version="1.0" encoding="UTF-8"?>
<svg id="Capa_1" xmlns="http://www.w3.org/2000/svg" xmlns:xlink="http://www.w3.org/1999/xlink" version="1.1" viewBox="0 0 239 49">
  <!-- Generator: Adobe Illustrator 29.4.0, SVG Export Plug-In . SVG Version: 2.1.0 Build 152)  -->
  <defs>
    <style>
      .st0 {
        fill: #fff;
      }

      .st1 {
        fill: url(#Degradado_sin_nombre_101);
      }

      .st2 {
        fill: url(#Degradado_sin_nombre_102);
      }

      .st3 {
        fill: url(#Degradado_sin_nombre_105);
      }

      .st4 {
        fill: url(#Degradado_sin_nombre_103);
      }

      .st5 {
        fill: url(#Degradado_sin_nombre_104);
      }

      .st6 {
        fill: url(#Degradado_sin_nombre_10);
      }
    </style>
    <linearGradient id="Degradado_sin_nombre_10" data-name="Degradado sin nombre 10" x1="17" y1="42.8" x2="30.4" y2="42.8" gradientUnits="userSpaceOnUse">
      <stop offset="0" stop-color="#118237"/>
      <stop offset="1" stop-color="#17c874"/>
    </linearGradient>
    <linearGradient id="Degradado_sin_nombre_101" data-name="Degradado sin nombre 10" x1="1.4" y1="29.1" x2="19.1" y2="29.1" xlink:href="#Degradado_sin_nombre_10"/>
    <linearGradient id="Degradado_sin_nombre_102" data-name="Degradado sin nombre 10" x1="162.7" y1="37.3" x2="162.7" y2="9.6" xlink:href="#Degradado_sin_nombre_10"/>
    <linearGradient id="Degradado_sin_nombre_103" data-name="Degradado sin nombre 10" x1="192.6" y1="37.3" x2="192.6" y2="9.6" xlink:href="#Degradado_sin_nombre_10"/>
    <linearGradient id="Degradado_sin_nombre_104" data-name="Degradado sin nombre 10" x1="222.9" y1="37.3" x2="222.9" y2="9.6" xlink:href="#Degradado_sin_nombre_10"/>
    <linearGradient id="Degradado_sin_nombre_105" data-name="Degradado sin nombre 10" x1="133.9" y1="37.3" x2="133.9" y2="9.6" xlink:href="#Degradado_sin_nombre_10"/>
  </defs>
  <g>
    <g>
      <path class="st6" d="M29.1,38.8c-1.1-1.5-2.6-2.4-4.3-2.7s-3.6.1-5,1.2c-1.5,1.1-2.4,2.6-2.7,4.4-.3,1.8.1,3.6,1.2,5s2.6,2.4,4.3,2.7c.4,0,.8.1,1.1.1,1.4,0,2.7-.4,3.9-1.3,1.5-1.1,2.4-2.6,2.7-4.4.3-1.8-.1-3.6-1.2-5h0Z"/>
      <path class="st1" d="M16.9,47.6c-1.3-1.8-1.8-4-1.5-6.2.4-2.2,1.5-4,3.3-5.3l-1.9-.7c-5.3-1.9-8.9-7.1-8.9-12.7s2.1-8.5,5.7-11.1c1.1-.6,2.3-1.1,3.4-1.5l2-.6s-7.5-1.2-13.3,5.6c-2.8,3.6-4.4,8.2-4.4,12.9s0,.6,0,.9h0c0,1.2.2,3.4,1.1,6.1h0c0,.1,0,.2.1.2,1.1,3,3.2,6.5,7.4,9.8.1,0,.2.1.3.2h0c.3.2.5.4.8.5,1.2.7,2.5,1.4,4,2l2.7,1.1s0-.1-.1-.3c-.3-.3-.6-.6-.8-1,0,0,0,.1,0,.1ZM13.2,44.2c-.5-.3-.9-.6-1-.6-5.3-3.5-8.4-9.4-8.4-15.7s1.4-7.2,1.9-8.2c-.2.9-.2,1.9-.2,2.9,0,6.1,3.6,11.8,9.1,14.4-.6,1.1-1.1,2.3-1.3,3.6-.2,1.2-.2,2.4,0,3.6h0s0,0,0,0h0Z"/>
    </g>
    <g>
      <path class="st0" d="M85.1,15.7h-12v2.9c0,1.6,1.3,2.9,2.9,2.9h6.2v4.2c-2.2,2.6-4.9,3.9-8.4,3.9s-5.6-1.1-7.7-3.3c-2.2-2.1-3.3-4.7-3.3-7.7s1.1-5.5,3.3-7.7c2.1-2.1,4.7-3.2,7.7-3.2s3.4.5,5.1,1.3c.9.5,1.8,1.1,2.5,1.8,0,0,.1,0,.2.1l.3.2c.9.8,2.1.9,3.1.4h0l.5-.3h0l2.5-1.8c-1.8-2.4-4-4.3-6.5-5.6-2.5-1.3-5.1-2-7.7-2-4.6,0-8.6,1.6-11.9,5-3.3,3.2-4.9,7.1-4.9,11.8s1.6,8.6,4.9,11.8c3.3,3.3,7.3,4.9,11.9,4.9s2.8-.2,4.2-.5,2.6-.8,3.9-1.5c1.2-.6,2.3-1.5,3.4-2.4,1-.9,1.9-1.9,2.6-3l.3-.7v-8.7c0-1.6-1.3-2.9-2.9-2.9h0Z"/>
      <path class="st2" d="M175.3,15.7h-12v2.9c0,1.6,1.3,2.9,2.9,2.9h6.2v4.2c-2.2,2.6-4.9,3.9-8.4,3.9s-5.6-1.1-7.7-3.3c-2.2-2.1-3.3-4.7-3.3-7.7s1.1-5.5,3.3-7.7c2.1-2.1,4.7-3.2,7.7-3.2s3.4.5,5.1,1.3c.9.5,1.8,1.1,2.5,1.8,0,0,.1,0,.2.1l.3.2c.9.8,2.1.9,3.1.4h0l.5-.3h0l2.5-1.8c-1.8-2.4-4-4.3-6.5-5.6-2.5-1.3-5.1-2-7.7-2-4.6,0-8.6,1.6-11.9,5-3.3,3.2-4.9,7.1-4.9,11.8s1.6,8.6,4.9,11.8c3.3,3.3,7.3,4.9,11.9,4.9s2.8-.2,4.2-.5,2.6-.8,3.9-1.5c1.2-.6,2.3-1.5,3.4-2.4,1-.9,1.9-1.9,2.6-3l.3-.7v-8.7c0-1.6-1.3-2.9-2.9-2.9h0,0Z"/>
      <path class="st4" d="M203.5,29.6l-6.8-8.5c4-1.1,7.1-4.7,7.1-9.1s-4.2-9.4-9.4-9.4h-13.3v29.1c0,1.6,1.3,2.9,2.9,2.9h3v-13.1h2.4l9.4,12c.6.7,1.5,1.2,2.4,1.2,2.5,0,3.9-2.9,2.3-4.9h0ZM187,15.5v-7.3h7.8c2,0,3.6,1.6,3.6,3.6s-1.6,3.6-3.6,3.6h-7.8Z"/>
      <path class="st5" d="M222.9,1.8c-9.3,0-16.7,7.4-16.7,16.7s7.4,16.7,16.7,16.7,16.7-7.4,16.7-16.7-7.4-16.7-16.7-16.7ZM222.9,30.1c-6.4,0-11.5-5.1-11.5-11.5s5.1-11.5,11.5-11.5,11.5,5.1,11.5,11.5-5.1,11.5-11.5,11.5Z"/>
      <path class="st3" d="M146.3,34.6c-1.8-.1-3.3-1.2-4-2.8l-1.8-4.3h-16l-2.9,7.1c-1.4-.1-2.7-.9-3.5-2-.9-1.3-1-2.9-.4-4.4l10.2-22.9c.8-1.6,2.4-2.7,4.2-2.7h3.9l14.4,32h-4.2ZM126.5,22.7h12l-6-14.4-6,14.4Z"/>
    </g>
    <path class="st0" d="M114.9,5.1c0-1.6-1.3-2.9-2.9-2.9h-20.3v29.5c0,1.6,1.3,3,2.9,3h20.3v-2.7h0c0,0,0-.2,0-.3,0-1.6-1.3-3-2.9-3h-14.5v-7.4h13.6v-3c0-1.6-1.3-3-2.9-3h-10.7v-7.4h17.4v-2.9h0Z"/>
  </g>
  <g>
    <path class="st0" d="M60.1,40.3c-.8,0-1.2.3-1.2.8s0,.4.3.5c.2.1.7.3,1.4.5.7.2,1.3.5,1.5.8.3.3.4.8.4,1.4s-.2,1.4-.7,1.8c-.5.4-1.1.6-1.9.6s-1.3,0-2.1-.3h-.4c0,0,.2-1.3.2-1.3,1,.1,1.7.2,2.3.2.8,0,1.2-.3,1.2-1s0-.4-.3-.6c-.2-.1-.5-.3-1.1-.4-.9-.2-1.5-.5-1.8-.9-.4-.3-.5-.8-.5-1.4s.2-1.3.7-1.7c.5-.4,1.1-.6,1.9-.6s1.2,0,2.1.2h.4c0,0-.1,1.3-.1,1.3-1-.1-1.8-.2-2.2-.2Z"/>
    <path class="st0" d="M69,45.9c-.5.6-1.3.9-2.4.9s-2-.3-2.4-.9-.7-1.6-.7-2.9.2-2.3.7-3,1.3-1,2.4-1,2,.3,2.4,1c.5.6.7,1.6.7,3s-.2,2.3-.7,2.9ZM65.4,44.9c.2.4.6.6,1.2.6s1-.2,1.2-.6c.2-.4.3-1,.3-2s-.1-1.6-.3-2-.6-.6-1.2-.6-1,.2-1.2.6-.3,1.1-.3,2,.1,1.6.3,2Z"/>
    <path class="st0" d="M71,46.7v-7.5h4.8v1.3h-3.3v2.2h2.7v1.3h-2.7v2.7h-1.5Z"/>
    <path class="st0" d="M76.2,40.5v-1.4h5.5v1.4h-2v6.2h-1.5v-6.2h-2Z"/>
    <path class="st0" d="M82.1,39.1h1.6l.9,6.2h.2l1.4-6.2h1.8l1.4,6.2h.2l.9-6.2h1.6l-1.4,7.5h-2.3l-1.2-5.7-1.2,5.7h-2.3l-1.4-7.5Z"/>
    <path class="st0" d="M92.2,46.7l1.7-7.5h2.9l1.7,7.5h-1.5l-.3-1.4h-2.6l-.3,1.4h-1.5ZM95.1,40.4l-.8,3.6h2.1l-.8-3.6h-.5Z"/>
    <path class="st0" d="M101,44.2v2.5h-1.5v-7.5h2.9c1.8,0,2.7.8,2.7,2.5s-.4,1.7-1.1,2.2l1.1,2.9h-1.7l-.9-2.5h-1.5ZM103.3,42.5c.2-.2.3-.5.3-.9s0-.6-.3-.9c-.2-.2-.5-.3-.8-.3h-1.4v2.4h1.4c.4,0,.6-.1.8-.3Z"/>
    <path class="st0" d="M106.4,46.7v-7.5h4.9v1.3h-3.3v1.8h2.7v1.3h-2.7v1.8h3.3v1.3h-4.9Z"/>
    <path class="st0" d="M117.5,46.7h-2.5v-7.5h2.5c.6,0,1.2,0,1.6.2.4.1.7.4,1,.7.2.3.4.7.5,1.1,0,.4.1,1,.1,1.7s0,1.2-.1,1.7c0,.4-.2.8-.5,1.2s-.6.6-1,.8-1,.2-1.6.2ZM119.1,43.7c0-.2,0-.6,0-1s0-.8,0-1c0-.3,0-.5-.2-.7-.1-.2-.3-.3-.5-.4s-.5-.1-.9-.1h-1v4.9h1c.6,0,1-.1,1.2-.4.2-.2.3-.6.4-1.2Z"/>
    <path class="st0" d="M122,46.7v-7.5h4.9v1.3h-3.3v1.8h2.7v1.3h-2.7v1.8h3.3v1.3h-4.9Z"/>
    <path class="st0" d="M133.7,44v-1.3h2.2v3.9c-1.1.2-1.9.3-2.6.3-1.2,0-2-.3-2.4-.9s-.7-1.6-.7-3,.2-2.4.7-3c.5-.6,1.2-.9,2.3-.9s1.4,0,2.2.2h.4c0,0,0,1.3,0,1.3-.9,0-1.6-.1-2.2-.1s-1,0-1.2.2-.4.4-.5.7-.2,1-.2,1.8.1,1.5.3,1.8c.2.3.7.5,1.3.5h.9v-1.5h-.7Z"/>
    <path class="st0" d="M137.4,46.7v-7.5h4.9v1.3h-3.3v1.8h2.7v1.3h-2.7v1.8h3.3v1.3h-4.9Z"/>
    <path class="st0" d="M145.8,40.3c-.8,0-1.2.3-1.2.8s0,.4.3.5c.2.1.7.3,1.4.5.7.2,1.2.5,1.5.8.3.3.4.8.4,1.4s-.2,1.4-.7,1.8-1.1.6-1.9.6-1.3,0-2.1-.3h-.4c0,0,.2-1.3.2-1.3,1,.1,1.7.2,2.3.2.8,0,1.2-.3,1.2-1s0-.4-.3-.6c-.2-.1-.5-.3-1.1-.4-.9-.2-1.5-.5-1.8-.9-.4-.3-.5-.8-.5-1.4s.2-1.3.7-1.7c.5-.4,1.1-.6,1.9-.6s1.2,0,2.1.2h.4c0,0-.1,1.3-.1,1.3-1-.1-1.8-.2-2.2-.2Z"/>
    <path class="st0" d="M148.8,40.5v-1.4h5.5v1.4h-2v6.2h-1.5v-6.2h-2Z"/>
    <path class="st0" d="M155.3,46.7v-7.5h1.5v7.5h-1.5Z"/>
    <path class="st0" d="M163.7,45.9c-.5.6-1.3.9-2.4.9s-2-.3-2.4-.9c-.5-.6-.7-1.6-.7-2.9s.2-2.3.7-3c.5-.6,1.3-1,2.4-1s2,.3,2.4,1c.5.6.7,1.6.7,3s-.2,2.3-.7,2.9ZM159.5,37.4l2.8-1.2.5,1.3-2.9.9-.4-1ZM160.1,44.9c.2.4.6.6,1.2.6s1-.2,1.2-.6c.2-.4.3-1,.3-2s-.1-1.6-.3-2-.6-.6-1.2-.6-1,.2-1.2.6-.3,1.1-.3,2,.1,1.6.3,2Z"/>
    <path class="st0" d="M165.7,46.7v-7.5h2.6l1.8,6.2h.1v-6.2h1.5v7.5h-2.5l-1.9-6.2h-.1v6.2h-1.5Z"/>
    <path class="st0" d="M179.9,39.1h1.6l-1.8,7.5h-2.8l-1.7-7.5h1.6l1.3,6.2h.5l1.3-6.2Z"/>
    <path class="st0" d="M182.5,46.7v-7.5h1.5v7.5h-1.5Z"/>
    <path class="st0" d="M185,40.5v-1.4h5.5v1.4h-2v6.2h-1.5v-6.2h-2Z"/>
    <path class="st0" d="M191.5,46.7v-7.5h1.5v7.5h-1.5Z"/>
    <path class="st0" d="M198.8,39.1h1.6l-1.8,7.5h-2.8l-1.7-7.5h1.6l1.3,6.2h.5l1.3-6.2Z"/>
    <path class="st0" d="M201.4,46.7v-7.5h1.5v7.5h-1.5Z"/>
    <path class="st0" d="M204.5,46.7v-7.5h2.6l1.8,6.2h.1v-6.2h1.5v7.5h-2.5l-1.9-6.2h-.1v6.2h-1.5Z"/>
    <path class="st0" d="M211.5,37.4l2.8-1.2.5,1.3-2.9.9-.4-1ZM212.2,46.7v-7.5h1.5v7.5h-1.5Z"/>
    <path class="st0" d="M220.2,46.6c-.8.2-1.5.3-2.1.3s-1.1,0-1.5-.2c-.4-.2-.7-.4-.9-.7-.2-.3-.4-.7-.4-1.2,0-.5-.1-1-.1-1.7,0-1.5.2-2.5.6-3,.4-.6,1.2-.9,2.3-.9s1.4.1,2.2.3v1.2c-.8-.1-1.4-.2-1.9-.2s-.8,0-1,.2c-.2.1-.4.4-.5.7,0,.4-.1,1-.1,1.9s.1,1.5.3,1.8c.2.3.6.5,1.2.5s1.3,0,1.9-.2v1.3Z"/>
    <path class="st0" d="M226.6,45.9c-.5.6-1.3.9-2.4.9s-2-.3-2.4-.9c-.5-.6-.7-1.6-.7-2.9s.2-2.3.7-3c.5-.6,1.3-1,2.4-1s2,.3,2.4,1c.5.6.7,1.6.7,3s-.2,2.3-.7,2.9ZM222.9,44.9c.2.4.6.6,1.2.6s1-.2,1.2-.6c.2-.4.3-1,.3-2s-.1-1.6-.3-2-.6-.6-1.2-.6-1,.2-1.2.6-.3,1.1-.3,2,.1,1.6.3,2Z"/>
    <path class="st0" d="M232.9,46.7h-4.3v-7.5h1.5v6.2h2.8v1.4Z"/>
    <path class="st0" d="M233.2,46.7l1.7-7.5h2.9l1.7,7.5h-1.5l-.3-1.4h-2.6l-.3,1.4h-1.5ZM236,40.4l-.8,3.6h2.1l-.8-3.6h-.5Z"/>
  </g>
  <g>
    <path class="st0" d="M24.7,8.5l-.7,1.9c2.7,1.2,5.1-.8,5.6-1.3.7-.3,3.9-1.5,4.1-4.5l-2.1-.3s.4-2.4-.3-3.4l-2.8,1.7s-1.9-1.7-4-2.3h0c0,.1,0,0,0,0-.5,2.1.1,4.6.1,4.6l-2.8,1.6c.5,1.1,2.8,1.9,2.8,1.9Z"/>
    <path class="st0" d="M40.6,19.9c0-4.4-3.5-7.9-7.8-8.1,3.1-1.4,6.2-1.2,6.5-1.2l.2-2.6c-.1,0-9.5-.6-13.5,6.7.1-1.1-.5-2.2-1.7-2.5-1.1-.3-2.3-.4-3.5-.2-3.5.6-6.3,3.4-6.7,6.9-.5,4,1.9,7.6,5.5,8.8,0,.2,0,.4,0,.6.5,3.6,3.3,6.3,6.9,6.8,3.6.5,6.8-1.4,8.4-4.3.7-1.3-.3-2.8-1.8-2.7,4.3-.3,7.6-3.8,7.6-8.1ZM19.7,24.9c-2.1-1-3.5-3.2-3.1-5.8.3-2.4,2.3-4.3,4.6-4.7,1.6-.2,3.1.2,4.2,1.1-.3.6-.5,1.2-.7,1.8,0,.2-.1.5-.2.7,0,0,0,0,0,0h0c0,.4-.1.9-.2,1.3-2.3,1-4,2.9-4.7,5.3ZM26.7,32.5c-2.3-.4-4.1-2.2-4.5-4.4-.3-1.6.1-3.1,1-4.2.8-1.1,1.3-2.4,1.2-3.8,0,0,0,0,0,0,0,4.5,3.6,8.1,8.1,8.1s.3,0,.5,0c-.5,2.8-3.2,4.9-6.3,4.4ZM32.5,25.4c-3,0-5.5-2.5-5.5-5.5s0-.7.1-1.1c0-.4.2-.7.3-1,.8-2,2.8-3.4,5.1-3.4s5.5,2.5,5.5,5.5-2.5,5.5-5.5,5.5Z"/>
  </g>
</svg>